<svg width="35" height="34" viewBox="0 0 35 34" fill="none" xmlns="http://www.w3.org/2000/svg">
<rect x="0.859985" y="0.5" width="33" height="33" fill="url(#paint0_linear)" stroke="grey"/>
<path d="M4.5655 25.7121L16.0037 5.75894C16.5824 4.74942 18.0219 4.74643 18.6047 5.75354L30.1513 25.7067C30.739 26.7223 30.0153 28 28.8524 28H5.86755C4.70736 28 3.98329 26.7277 4.5655 25.7121Z" fill="#FEFE06"/>
<path fill-rule="evenodd" clip-rule="evenodd" d="M17.0888 6.39601L5.65054 26.3492C5.5535 26.5184 5.67419 26.7305 5.86755 26.7305H28.8524C29.0462 26.7305 29.1668 26.5175 29.0689 26.3483L17.5223 6.39511C17.4251 6.22726 17.1852 6.22775 17.0888 6.39601ZM16.0037 5.75894L4.5655 25.7121C3.98329 26.7277 4.70736 28 5.86755 28H28.8524C30.0153 28 30.739 26.7223 30.1513 25.7067L18.6047 5.75354C18.0219 4.74643 16.5824 4.74942 16.0037 5.75894Z" fill="#C40F18"/>
<path d="M19.0597 24.001C19.0597 24.9476 18.3015 25.7149 17.3662 25.7149C16.4309 25.7149 15.6727 24.9476 15.6727 24.001C15.6727 23.0545 16.4309 22.2872 17.3662 22.2872C18.3015 22.2872 19.0597 23.0545 19.0597 24.001Z" fill="black"/>
<path d="M15.0457 12.8927C15.0457 12.3849 15.1084 11.0519 17.4291 11.0519C19.7497 11.0519 19.7497 12.3849 19.7497 12.8927C19.7497 13.2526 18.5842 17.9799 17.9052 20.7037C17.7784 21.212 17.0708 21.2143 16.9409 20.7068C16.2436 17.9835 15.0457 13.2527 15.0457 12.8927Z" fill="#C4C4C4"/>
<path d="M15.0457 12.8927C15.0457 12.3849 15.1084 11.0519 17.4291 11.0519C19.7497 11.0519 19.7497 12.3849 19.7497 12.8927C19.7497 13.2526 18.5842 17.9799 17.9052 20.7037C17.7784 21.212 17.0708 21.2143 16.9409 20.7068C16.2436 17.9835 15.0457 13.2527 15.0457 12.8927Z" fill="url(#paint1_linear)"/>
<defs>
<linearGradient id="paint0_linear" x1="17.36" y1="0" x2="17.36" y2="34" gradientUnits="userSpaceOnUse">
<stop stop-color="#414143"/>
<stop offset="0.0572917" stop-color="#57575F"/>
<stop offset="0.947917" stop-color="#2D2E33"/>
<stop offset="1" stop-color="#060606"/>
</linearGradient>
<linearGradient id="paint1_linear" x1="17.3977" y1="11.0519" x2="17.3977" y2="22.6045" gradientUnits="userSpaceOnUse">
<stop stop-color="#97959A"/>
<stop offset="1" stop-color="#1C2424"/>
</linearGradient>
</defs>
</svg>
