<svg width="34" height="34" viewBox="0 0 34 34" fill="none" xmlns="http://www.w3.org/2000/svg">
    <rect x="0.5" y="0.5" width="33" height="33" fill="url(#paint0_linear)" stroke="#17970D"/>
    <path d="M28.7916 14.9722C28.7916 18.1235 26.5175 21.3592 23.854 23.8312C22.5289 25.0611 21.1221 26.0878 19.8847 26.8056C19.266 27.1646 18.693 27.4442 18.1965 27.6335C17.6956 27.8244 17.2898 27.9166 17 27.9166C16.71 27.9166 16.3042 27.8244 15.8033 27.6335C15.3067 27.4442 14.7337 27.1646 14.1149 26.8056C12.8775 26.0878 11.4708 25.0611 10.1457 23.8312C7.48228 21.3592 5.20831 18.1235 5.20831 14.9722C5.20831 8.59476 10.4828 3.41663 17 3.41663C23.5171 3.41663 28.7916 8.59476 28.7916 14.9722Z" fill="#17970D" stroke="#17970D" stroke-width="0.5"/>
    <path d="M13.8146 13.4756C16.0274 15.6451 16.9242 18.2833 15.8178 19.368C14.7114 20.4527 12.0204 19.5742 9.80757 17.4041C7.59402 15.2347 6.69727 12.5965 7.8044 11.5117C8.91152 10.427 11.6018 11.3062 13.8146 13.4756ZM20.1854 13.4756C17.9725 15.6451 17.0758 18.2833 18.1822 19.368C19.2886 20.4527 21.9796 19.5742 24.1924 17.4041C26.4059 15.234 27.3027 12.5965 26.1956 11.5117C25.0892 10.427 22.3982 11.3055 20.1854 13.4756ZM17 24.6944C15.3375 24.6944 14.4677 23.8888 14.3742 23.7965C14.2404 23.6672 14.1645 23.4911 14.1632 23.3069C14.1619 23.1228 14.2352 22.9457 14.3671 22.8145C14.499 22.6834 14.6786 22.609 14.8664 22.6077C15.0543 22.6064 15.2349 22.6783 15.3687 22.8076C15.4048 22.8402 15.9396 23.3055 17 23.3055C18.0759 23.3055 18.61 22.827 18.6327 22.8062C18.7686 22.6811 18.9491 22.6131 19.1355 22.6169C19.322 22.6207 19.4995 22.6958 19.63 22.8263C19.7596 22.956 19.8318 23.1304 19.831 23.3119C19.8302 23.4934 19.7565 23.6672 19.6258 23.7958C19.5323 23.8888 18.6624 24.6944 17 24.6944Z" fill="#074701"/>
    <defs>
        <linearGradient id="paint0_linear" x1="17" y1="0" x2="17" y2="34" gradientUnits="userSpaceOnUse">
            <stop stop-color="#414143"/>
            <stop offset="0.0572917" stop-color="#57575F"/>
            <stop offset="0.947917" stop-color="#2D2E33"/>
            <stop offset="1" stop-color="#060606"/>
        </linearGradient>
    </defs>
</svg>
