<svg width="34" height="34" viewBox="0 0 34 34" fill="none" xmlns="http://www.w3.org/2000/svg">
<rect x="0.5" y="0.5" width="33" height="33" fill="url(#paint0_linear)" stroke="#17970D"/>
<path fill-rule="evenodd" clip-rule="evenodd" d="M14.166 9.20837C14.1663 9.20837 14.1666 9.20837 14.1666 9.91671C14.1666 10.625 14.167 10.625 14.1673 10.625L14.1679 10.625L14.169 10.625L14.1708 10.625L14.1729 10.625C14.1733 10.625 14.1734 10.625 14.1731 10.625C14.1728 10.625 14.1723 10.625 14.1715 10.625C14.168 10.6251 14.1596 10.6255 14.1465 10.6263C14.1204 10.6279 14.0759 10.6315 14.0158 10.6394C13.8953 10.6553 13.713 10.6884 13.4895 10.7572C13.0441 10.8942 12.4331 11.1732 11.8138 11.7449C11.2168 12.2959 10.9195 12.9138 10.7704 13.3954C10.6958 13.6364 10.6592 13.8407 10.6414 13.9804C10.6326 14.05 10.6284 14.1029 10.6265 14.1353C10.6256 14.1515 10.6252 14.1625 10.625 14.168L10.625 14.1678L10.625 14.1673C10.625 14.167 10.625 14.1667 9.91665 14.1667C9.20831 14.1667 9.20831 14.1664 9.20831 14.1661L9.20831 14.1654L9.20832 14.164L9.20833 14.1607L9.20842 14.1522L9.20894 14.1281C9.20948 14.1089 9.21047 14.0836 9.21229 14.0525C9.21593 13.9904 9.22287 13.9054 9.23613 13.8013C9.2626 13.5936 9.31459 13.3076 9.41707 12.9765C9.62217 12.3139 10.0331 11.4606 10.8529 10.7039C11.6502 9.96795 12.4559 9.59301 13.0729 9.40316C13.3807 9.30847 13.6412 9.25986 13.8306 9.23489C13.9253 9.22239 14.0026 9.21577 14.0595 9.21227C14.088 9.21051 14.1113 9.20954 14.1293 9.20901L14.1522 9.20849L14.1605 9.2084L14.1638 9.20838L14.1653 9.20837L14.166 9.20837ZM10.625 14.168L10.625 14.1688L10.625 14.1704L10.625 14.1718C10.625 14.1719 10.625 14.1707 10.625 14.168Z" fill="#9D9D9D"/>
<path fill-rule="evenodd" clip-rule="evenodd" d="M19.834 9.20837C19.8337 9.20837 19.8334 9.20837 19.8334 9.91671C19.8334 10.625 19.833 10.625 19.8327 10.625L19.8321 10.625L19.831 10.625L19.8292 10.625L19.8271 10.625C19.8267 10.625 19.8266 10.625 19.8269 10.625C19.8272 10.625 19.8277 10.625 19.8285 10.625C19.832 10.6251 19.8404 10.6255 19.8535 10.6263C19.8796 10.6279 19.9241 10.6315 19.9842 10.6394C20.1047 10.6553 20.287 10.6884 20.5105 10.7572C20.9559 10.8942 21.5669 11.1732 22.1862 11.7449C22.7832 12.2959 23.0805 12.9138 23.2296 13.3954C23.3042 13.6364 23.3408 13.8407 23.3586 13.9804C23.3674 14.05 23.3716 14.1029 23.3735 14.1353C23.3744 14.1515 23.3748 14.1625 23.375 14.168L23.375 14.1678L23.375 14.1673C23.375 14.167 23.375 14.1667 24.0834 14.1667C24.7917 14.1667 24.7917 14.1664 24.7917 14.1661L24.7917 14.1654L24.7917 14.164L24.7917 14.1607L24.7916 14.1522L24.7911 14.1281C24.7905 14.1089 24.7895 14.0836 24.7877 14.0525C24.7841 13.9904 24.7771 13.9054 24.7639 13.8013C24.7374 13.5936 24.6854 13.3076 24.5829 12.9765C24.3778 12.3139 23.9669 11.4606 23.1471 10.7039C22.3498 9.96795 21.5441 9.59301 20.9271 9.40316C20.6193 9.30847 20.3588 9.25986 20.1694 9.23489C20.0747 9.22239 19.9974 9.21577 19.9405 9.21227C19.912 9.21051 19.8887 9.20954 19.8707 9.20901L19.8478 9.20849L19.8395 9.2084L19.8362 9.20838L19.8347 9.20837L19.834 9.20837ZM23.375 14.168L23.375 14.1688L23.375 14.1704L23.375 14.1718C23.375 14.1719 23.375 14.1707 23.375 14.168Z" fill="#9D9D9D"/>
<path fill-rule="evenodd" clip-rule="evenodd" d="M14.166 24.7916C14.1663 24.7916 14.1666 24.7916 14.1666 24.0833C14.1666 23.375 14.167 23.375 14.1673 23.375L14.1679 23.375L14.169 23.375L14.1708 23.375L14.1729 23.375C14.1733 23.375 14.1734 23.375 14.1731 23.375C14.1728 23.375 14.1723 23.375 14.1715 23.375C14.168 23.3749 14.1596 23.3745 14.1465 23.3737C14.1204 23.3721 14.0759 23.3685 14.0158 23.3606C13.8953 23.3447 13.713 23.3116 13.4895 23.2428C13.0441 23.1058 12.4331 22.8268 11.8138 22.2551C11.2168 21.7041 10.9195 21.0862 10.7704 20.6046C10.6958 20.3636 10.6592 20.1593 10.6414 20.0196C10.6326 19.95 10.6284 19.8971 10.6265 19.8647C10.6256 19.8485 10.6252 19.8375 10.625 19.832L10.625 19.8322L10.625 19.8327C10.625 19.833 10.625 19.8333 9.91665 19.8333C9.20831 19.8333 9.20831 19.8336 9.20831 19.8339L9.20831 19.8346L9.20832 19.836L9.20833 19.8393L9.20842 19.8478L9.20894 19.8719C9.20948 19.8911 9.21047 19.9164 9.21229 19.9475C9.21593 20.0096 9.22287 20.0946 9.23613 20.1987C9.2626 20.4064 9.31459 20.6924 9.41707 21.0235C9.62217 21.6861 10.0331 22.5394 10.8529 23.2961C11.6502 24.032 12.4559 24.407 13.0729 24.5968C13.3807 24.6915 13.6412 24.7401 13.8306 24.7651C13.9253 24.7776 14.0026 24.7842 14.0595 24.7877C14.088 24.7895 14.1113 24.7905 14.1293 24.791L14.1522 24.7915L14.1605 24.7916L14.1638 24.7916L14.1653 24.7916L14.166 24.7916ZM10.625 19.832L10.625 19.8312L10.625 19.8296L10.625 19.8282C10.625 19.8281 10.625 19.8293 10.625 19.832Z" fill="#9D9D9D"/>
<path fill-rule="evenodd" clip-rule="evenodd" d="M19.834 24.7916C19.8337 24.7916 19.8334 24.7916 19.8334 24.0833C19.8334 23.375 19.833 23.375 19.8327 23.375L19.8321 23.375L19.831 23.375L19.8292 23.375L19.8271 23.375C19.8267 23.375 19.8266 23.375 19.8269 23.375C19.8272 23.375 19.8277 23.375 19.8285 23.375C19.832 23.3749 19.8404 23.3745 19.8535 23.3737C19.8796 23.3721 19.9241 23.3685 19.9842 23.3606C20.1047 23.3447 20.287 23.3116 20.5105 23.2428C20.9559 23.1058 21.5669 22.8268 22.1862 22.2551C22.7832 21.7041 23.0805 21.0862 23.2296 20.6046C23.3042 20.3636 23.3408 20.1593 23.3586 20.0196C23.3674 19.95 23.3716 19.8971 23.3735 19.8647C23.3744 19.8485 23.3748 19.8375 23.375 19.832L23.375 19.8322L23.375 19.8327C23.375 19.833 23.375 19.8333 24.0834 19.8333C24.7917 19.8333 24.7917 19.8336 24.7917 19.8339L24.7917 19.8346L24.7917 19.836L24.7917 19.8393L24.7916 19.8478L24.7911 19.8719C24.7905 19.8911 24.7895 19.9164 24.7877 19.9475C24.7841 20.0096 24.7771 20.0946 24.7639 20.1987C24.7374 20.4064 24.6854 20.6924 24.5829 21.0235C24.3778 21.6861 23.9669 22.5394 23.1471 23.2961C22.3498 24.032 21.5441 24.407 20.9271 24.5968C20.6193 24.6915 20.3588 24.7401 20.1694 24.7651C20.0747 24.7776 19.9974 24.7842 19.9405 24.7877C19.912 24.7895 19.8887 24.7905 19.8707 24.791L19.8478 24.7915L19.8395 24.7916L19.8362 24.7916L19.8347 24.7916L19.834 24.7916ZM23.375 19.832L23.375 19.8312L23.375 19.8296L23.375 19.8282C23.375 19.8281 23.375 19.8293 23.375 19.832Z" fill="#9D9D9D"/>
<path fill-rule="evenodd" clip-rule="evenodd" d="M17 26.9166C22.4768 26.9166 26.9167 22.4768 26.9167 17C26.9167 11.5231 22.4768 7.08329 17 7.08329C11.5232 7.08329 7.08335 11.5231 7.08335 17C7.08335 22.4768 11.5232 26.9166 17 26.9166ZM17 28.3333C23.2592 28.3333 28.3334 23.2592 28.3334 17C28.3334 10.7407 23.2592 5.66663 17 5.66663C10.7408 5.66663 5.66669 10.7407 5.66669 17C5.66669 23.2592 10.7408 28.3333 17 28.3333Z" fill="#1F2020"/>
<path d="M29.75 4.25H24.65V6.1625H29.75V4.25Z" fill="#17970D"/>
<path d="M29.75 9.35016L29.75 4.25016L27.8375 4.25016L27.8375 9.35016L29.75 9.35016Z" fill="#17970D"/>
<path d="M4.25 4.25H9.35V6.1625H4.25V4.25Z" fill="#17970D"/>
<path d="M4.25 9.35016L4.25 4.25016L6.1625 4.25016L6.1625 9.35016L4.25 9.35016Z" fill="#17970D"/>
<path d="M29.75 29.75H24.65V27.8375H29.75V29.75Z" fill="#17970D"/>
<path d="M29.75 24.6498L29.75 29.7498L27.8375 29.7498L27.8375 24.6498L29.75 24.6498Z" fill="#17970D"/>
<path d="M4.25 29.75H9.35V27.8375H4.25V29.75Z" fill="#17970D"/>
<path d="M4.25 24.6498L4.25 29.7498L6.1625 29.7498L6.1625 24.6498L4.25 24.6498Z" fill="#17970D"/>
<path fill-rule="evenodd" clip-rule="evenodd" d="M16.2917 29.75V4.25H17.7084V29.75H16.2917Z" fill="#9D9D9D"/>
<path fill-rule="evenodd" clip-rule="evenodd" d="M29.75 17.7084L4.25 17.7084L4.25 16.2917L29.75 16.2917L29.75 17.7084Z" fill="#C4C4C4"/>
<defs>
<linearGradient id="paint0_linear" x1="17" y1="0" x2="17" y2="34" gradientUnits="userSpaceOnUse">
<stop stop-color="#414143"/>
<stop offset="0.0572917" stop-color="#57575F"/>
<stop offset="0.947917" stop-color="#2D2E33"/>
<stop offset="1" stop-color="#060606"/>
</linearGradient>
</defs>
</svg>
