<svg width="18" height="18" viewBox="0 0 18 18" fill="none" xmlns="http://www.w3.org/2000/svg">
<g clip-path="url(#clip0)">
<path d="M9.97716 15.26C9.8494 15.4802 9.66603 15.6631 9.4454 15.7901C9.22477 15.9172 8.97463 15.9841 8.72002 15.9841C8.46541 15.9841 8.21527 15.9172 7.99465 15.7901C7.77402 15.6631 7.59065 15.4802 7.46289 15.26" stroke="#98A6AD" stroke-width="2" stroke-linecap="round" stroke-linejoin="round"/>
<path d="M13.5378 9.44669C13.2146 8.26324 13.0604 7.04 13.08 5.81335" stroke="#98A6AD" stroke-width="2" stroke-linecap="round" stroke-linejoin="round"/>
<path d="M4.54899 4.54895C4.42274 4.95851 4.35904 5.38478 4.36005 5.81335C4.36005 10.9 2.18005 12.3533 2.18005 12.3533H12.3534" stroke="#98A6AD" stroke-width="2" stroke-linecap="round" stroke-linejoin="round"/>
<path d="M13.08 5.81337C13.0811 5.02353 12.8677 4.2482 12.4625 3.57021C12.0574 2.89222 11.4756 2.33704 10.7794 1.96395C10.0833 1.59087 9.29881 1.41391 8.50989 1.45196C7.72097 1.49002 6.9572 1.74167 6.30017 2.18004" stroke="#98A6AD" stroke-width="2" stroke-linecap="round" stroke-linejoin="round"/>
<path d="M0.726685 0.726685L16.7133 16.7133" stroke="#98A6AD" stroke-width="2" stroke-linecap="round" stroke-linejoin="round"/>
</g>
<defs>
<clipPath id="clip0">
<rect width="17.44" height="17.44" fill="white"/>
</clipPath>
</defs>
</svg>
