<svg width="18" height="18" viewBox="0 0 18 18" fill="none" xmlns="http://www.w3.org/2000/svg">
<g clip-path="url(#clip0)">
<path d="M0.766602 2.90662V7.26661H5.1266" stroke="#98A6AD" stroke-width="2" stroke-linecap="round" stroke-linejoin="round"/>
<path d="M16.7532 14.5333V10.1733H12.3932" stroke="#98A6AD" stroke-width="2" stroke-linecap="round" stroke-linejoin="round"/>
<path d="M14.9293 6.54004C14.5608 5.49857 13.9344 4.56744 13.1087 3.83351C12.283 3.09959 11.2848 2.58681 10.2072 2.343C9.12973 2.0992 8.00801 2.13233 6.94676 2.4393C5.88551 2.74627 4.91932 3.31707 4.13833 4.09844L0.766602 7.26671M16.7533 10.1734L13.3815 13.3416C12.6005 14.123 11.6344 14.6938 10.5731 15.0008C9.51185 15.3078 8.39014 15.3409 7.31262 15.0971C6.2351 14.8533 5.23691 14.3405 4.41117 13.6066C3.58544 12.8726 2.95908 11.9415 2.59053 10.9" stroke="#98A6AD" stroke-width="2" stroke-linecap="round" stroke-linejoin="round"/>
</g>
<defs>
<clipPath id="clip0">
<rect width="17.44" height="17.44" fill="white" transform="translate(0.039917)"/>
</clipPath>
</defs>
</svg>
