<svg width="18" height="18" viewBox="0 0 18 18" fill="none" xmlns="http://www.w3.org/2000/svg">
<g clip-path="url(#clip0)">
<path d="M6.33337 15.26H12.1467" stroke="#98A6AD" stroke-width="2" stroke-linecap="round" stroke-linejoin="round"/>
<path d="M9.23999 12.3533V15.2599" stroke="#98A6AD" stroke-width="2" stroke-linecap="round" stroke-linejoin="round"/>
<path fill-rule="evenodd" clip-rule="evenodd" d="M2.97339 3.63339C2.97339 3.38302 3.17635 3.18005 3.42672 3.18005H15.0534C15.3038 3.18005 15.5067 3.38302 15.5067 3.63339V8.05624C16.5305 8.68704 17.2738 9.72924 17.5062 10.9524C17.5065 10.935 17.5067 10.9175 17.5067 10.9001V3.63339C17.5067 2.27845 16.4083 1.18005 15.0534 1.18005H3.42672C2.07178 1.18005 0.973389 2.27845 0.973389 3.63339V10.9001C0.973389 12.255 2.07178 13.3534 3.42672 13.3534H9.15893C8.96778 12.8628 8.86289 12.3291 8.86289 11.771C8.86289 11.6301 8.86956 11.4908 8.88262 11.3534H3.42672C3.17635 11.3534 2.97339 11.1504 2.97339 10.9001V3.63339Z" fill="#98A6AD"/>
<path fill-rule="evenodd" clip-rule="evenodd" d="M15.5938 8.94331C15.8421 9.19162 15.8421 9.59421 15.5938 9.84251L11.7788 13.6575C11.5305 13.9058 11.1279 13.9058 10.8796 13.6575C10.6313 13.4092 10.6313 13.0066 10.8796 12.7583L14.6946 8.94331C14.9429 8.695 15.3455 8.695 15.5938 8.94331Z" fill="#FF0101"/>
<path fill-rule="evenodd" clip-rule="evenodd" d="M10.8796 8.94331C11.1279 8.695 11.5305 8.695 11.7788 8.94331L15.5938 12.7583C15.8421 13.0066 15.8421 13.4092 15.5938 13.6575C15.3455 13.9058 14.9429 13.9058 14.6946 13.6575L10.8796 9.84251C10.6313 9.59421 10.6313 9.19162 10.8796 8.94331Z" fill="#FF0101"/>
</g>
<defs>
<clipPath id="clip0">
<rect width="17.44" height="17.44" fill="white" transform="translate(0.52002)"/>
</clipPath>
</defs>
</svg>
