<svg width="16" height="16" viewBox="0 0 16 16" fill="none" xmlns="http://www.w3.org/2000/svg">
<path d="M9.49689 8L13.6868 3.81011C13.8856 3.61161 13.9975 3.34224 13.9977 3.06127C13.998 2.7803 13.8866 2.51074 13.6881 2.31189C13.4896 2.11304 13.2202 2.00118 12.9393 2.00094C12.6583 2.00069 12.3887 2.11206 12.1899 2.31057L8 6.50046L3.81011 2.31057C3.61125 2.11171 3.34155 2 3.06034 2C2.77912 2 2.50942 2.11171 2.31057 2.31057C2.11171 2.50942 2 2.77912 2 3.06034C2 3.34155 2.11171 3.61125 2.31057 3.81011L6.50046 8L2.31057 12.1899C2.11171 12.3887 2 12.6584 2 12.9397C2 13.2209 2.11171 13.4906 2.31057 13.6894C2.50942 13.8883 2.77912 14 3.06034 14C3.34155 14 3.61125 13.8883 3.81011 13.6894L8 9.49954L12.1899 13.6894C12.3887 13.8883 12.6584 14 12.9397 14C13.2209 14 13.4906 13.8883 13.6894 13.6894C13.8883 13.4906 14 13.2209 14 12.9397C14 12.6584 13.8883 12.3887 13.6894 12.1899L9.49689 8Z" fill="white"/>
</svg>
