<svg viewBox="0 0 13 16" xmlns="http://www.w3.org/2000/svg">
<path d="M9.8037 7.99996C9.8037 6.99984 9.19236 6.1434 8.32465 5.7828L7.86262 6.89279C8.29648 7.07309 8.60074 7.50131 8.60074 8.00278C8.60074 8.50143 8.29648 8.92965 7.86262 9.11277L8.32465 10.2228C9.19236 9.85652 9.8037 9.00008 9.8037 7.99996ZM9.2487 3.56282L8.78668 4.67281C10.0911 5.21653 11.0067 6.50119 11.0067 7.99996C11.0067 9.50155 10.0911 10.7834 8.78668 11.3271L9.2487 12.4371C10.9869 11.7131 12.2068 10.0002 12.2068 7.99996C12.2068 5.99973 10.9869 4.28685 9.2487 3.56282ZM0.188477 4.99397V11.0031H2.59158L6.79771 15.2121V0.787842L2.59158 4.99397H0.188477Z" fill="#1EA0DA"/>
</svg>
